<?xml version="1.0" encoding="utf-8"?>
<!-- Generator: Adobe Illustrator 16.0.4, SVG Export Plug-In . SVG Version: 6.00 Build 0)  -->
<!DOCTYPE svg PUBLIC "-//W3C//DTD SVG 1.1//EN" "http://www.w3.org/Graphics/SVG/1.1/DTD/svg11.dtd">
<svg version="1.1" xmlns="http://www.w3.org/2000/svg" xmlns:xlink="http://www.w3.org/1999/xlink" x="0px" y="0px" width="250px"
	 height="250px" viewBox="0 0 250 250" enable-background="new 0 0 250 250" xml:space="preserve" fill="#FF9800" >
<g id="Layer_4">
	<g>
		<path  d="M102.111,171.342c4.141-13.479,10.109-25.66,17.777-36.38c-11.76-14.825-26.844-27.323-44.575-36.82
			l8.631-23.597L29.417,99.875l25.317,54.534l8.409-22.991c17.165,10.086,30.242,23.492,38.917,39.95L102.111,171.342z"/>
		<path  d="M124.5,25.417L81.98,67.926H107v39.884c6.457,5.583,12.323,11.678,17.538,18.231h0.133
			c5.09-6.783,10.876-12.958,17.329-18.479V67.926h25.02L124.5,25.417z"/>
		<path  d="M166.947,72.679l7.237,24.018c-31.904,15.101-54.147,41.242-64.438,75.815
			c-5.611,18.85-6.207,35.607-6.058,43.987h34.99c-0.348-11.415,0.843-61.248,45.765-85.759l7.04,23.36l28.434-52.977
			L166.947,72.679z"/>
	</g>
</g>
</svg>
