<?xml version="1.0" standalone="no"?>
<!DOCTYPE svg PUBLIC "-//W3C//DTD SVG 20010904//EN"
 "http://www.w3.org/TR/2001/REC-SVG-20010904/DTD/svg10.dtd">
<svg version="1.0" xmlns="http://www.w3.org/2000/svg"
 width="512.000000pt" height="512.000000pt" viewBox="0 0 512.000000 512.000000"
 preserveAspectRatio="xMidYMid meet" >
<metadata>
Created by potrace 1.13, written by Peter Selinger 2001-2015
</metadata>
<g transform="translate(0.000000,512.000000) scale(0.100000,-0.100000)"
fill="#fff" stroke="none">
<path d="M1529 4607 c-50 -34 -59 -59 -59 -174 l0 -103 -694 -2 c-678 -3 -694
-3 -716 -23 -52 -46 -50 16 -50 -1451 0 -1499 -4 -1410 59 -1447 27 -16 148
-17 1781 -17 l1752 0 34 34 34 34 0 281 0 280 -42 12 c-60 16 -94 35 -144 81
l-44 41 0 -267 0 -266 -1600 0 -1600 0 2 1093 3 1092 1598 3 1597 2 0 -424 0
-424 30 -12 c48 -20 119 -105 161 -193 l38 -82 1 790 c0 868 4 817 -60 850
-25 13 -125 15 -705 15 l-675 0 0 95 c0 112 -15 156 -62 185 -31 19 -50 20
-319 20 -281 0 -287 0 -320 -23z"/>
<path d="M4150 3459 c-107 -21 -179 -117 -188 -252 -6 -93 8 -137 61 -195 55
-59 108 -84 188 -90 181 -13 275 71 287 255 4 70 2 87 -17 127 -55 112 -200
180 -331 155z"/>
<path d="M2415 3389 c-11 -6 -192 -183 -402 -393 l-383 -381 -172 172 c-95 94
-183 176 -195 182 -12 6 -39 11 -59 11 -35 0 -47 -9 -146 -108 l-108 -108 0
-49 0 -49 313 -313 313 -313 54 0 55 0 517 518 c446 446 517 522 523 553 9 51
-8 78 -118 187 -80 80 -100 94 -133 98 -21 2 -48 -1 -59 -7z"/>
<path d="M3351 2844 c-66 -28 -77 -125 -26 -229 52 -107 169 -323 202 -373 43
-64 103 -102 162 -102 66 0 93 20 139 107 52 95 78 130 89 119 11 -11 7 -481
-6 -796 -21 -486 -33 -980 -27 -1033 12 -92 65 -152 132 -150 48 1 83 27 106
79 17 41 21 87 33 477 9 248 20 450 26 475 12 45 45 76 75 70 9 -2 26 -15 37
-30 27 -37 36 -175 36 -616 1 -383 4 -404 56 -438 35 -23 103 -22 143 2 19 10
42 38 54 63 l22 45 -18 400 c-9 221 -23 543 -31 716 -20 443 -20 724 1 744 19
20 44 9 77 -37 54 -71 132 -257 182 -436 32 -115 64 -180 105 -215 39 -32 54
-33 86 -1 l26 26 -4 162 c-5 190 -27 283 -108 454 -79 166 -157 268 -273 357
-143 108 -229 133 -431 123 -113 -6 -200 -22 -241 -44 -41 -23 -120 -113 -191
-219 -42 -63 -83 -119 -91 -126 -24 -19 -53 23 -108 153 -60 145 -87 198 -120
237 -35 41 -73 53 -114 36z"/>
</g>
</svg>
