<?xml version="1.0" standalone="no"?>
<!DOCTYPE svg PUBLIC "-//W3C//DTD SVG 20010904//EN"
 "http://www.w3.org/TR/2001/REC-SVG-20010904/DTD/svg10.dtd">
<svg version="1.0" xmlns="http://www.w3.org/2000/svg"
 width="512.000000pt" height="512.000000pt" viewBox="0 0 512.000000 512.000000"
 preserveAspectRatio="xMidYMid meet">
<metadata>
Created by potrace 1.13, written by Peter Selinger 2001-2015
</metadata>
<g transform="translate(0.000000,512.000000) scale(0.100000,-0.100000)"
fill="#fff" stroke="none">
<path d="M1522 4148 c-1112 -966 -1032 -886 -904 -908 102 -17 3903 -10 3955
8 l37 13 -1040 879 c-572 484 -1041 880 -1042 880 -2 0 -455 -393 -1006 -872z"/>
<path d="M4040 2274 c-393 -333 -723 -613 -733 -622 -16 -17 20 -49 744 -662
419 -355 765 -645 768 -645 3 0 14 29 23 65 15 59 17 167 17 1151 1 689 -3
1106 -9 1140 -12 63 -66 179 -83 179 -7 -1 -334 -273 -727 -606z"/>
<path d="M320 2838 c-57 -93 -55 -36 -58 -1235 -2 -953 -1 -1111 13 -1174 8
-40 18 -76 23 -81 8 -8 1482 1256 1482 1271 0 6 -1381 1210 -1422 1239 -16 11
-20 9 -38 -20z"/>
<path d="M2825 1245 c-165 -140 -303 -255 -307 -255 -3 0 -133 110 -288 245
-165 143 -287 242 -294 238 -10 -7 -1452 -1248 -1486 -1280 -13 -12 -12 -16
10 -33 14 -10 54 -28 90 -40 l65 -21 1965 3 1965 3 68 32 c37 18 67 36 67 41
0 8 -1543 1322 -1552 1322 -2 0 -138 -115 -303 -255z"/>
</g>
</svg>
