<svg xmlns="http://www.w3.org/2000/svg" viewBox="0 0 100 100" enable-background="new 0 0 100 100"><circle cx="50" cy="50" r="49" fill="none" stroke="#fff" stroke-width="2" stroke-miterlimit="10"/><g fill="#fff"><path fill-rule="evenodd" d="M39 67c-.2 0-.4 0-.5-.2-.3 0-.5-.5-.5-.8V33c0-.3.2-.7.5-1h1l33 17c.3.3.5.6.5 1s-.2.7-.6 1l-33 16H39z" clip-rule="evenodd"/><path d="M39 33l33 17-33 16V33m0-2c-.4 0-.7 0-1 .3-.6.4-1 1-1 1.7v33c0 .7.4 1.3 1 1.7.3.2.6.3 1 .3.3 0 .6 0 1-.2l33-16c.6-.3 1-1 1-1.8 0-.7-.4-1.4-1-1.8l-33-17-1-.2z"/></g></svg>