<?xml version="1.0" standalone="no"?>
<!DOCTYPE svg PUBLIC "-//W3C//DTD SVG 20010904//EN"
 "http://www.w3.org/TR/2001/REC-SVG-20010904/DTD/svg10.dtd">
<svg version="1.0" xmlns="http://www.w3.org/2000/svg"
 width="300.000000pt" height="300.000000pt" viewBox="0 0 300.000000 300.000000"
 preserveAspectRatio="xMidYMid meet">
<metadata>
Created by potrace 1.13, written by Peter Selinger 2001-2015
</metadata>
<g transform="translate(0.000000,300.000000) scale(0.100000,-0.100000)"
fill="#fff" stroke="none">
<path d="M1275 2986 c-334 -55 -612 -198 -845 -435 -206 -209 -336 -453 -402
-749 -30 -132 -32 -451 -5 -585 110 -541 498 -979 1017 -1145 172 -55 255 -67
465 -66 157 0 208 4 292 22 598 130 1045 577 1175 1175 30 138 32 435 5 572
-97 478 -395 868 -822 1075 -118 57 -221 93 -348 121 -119 26 -413 35 -532 15z
m370 -1097 c344 -343 350 -349 350 -389 0 -40 -6 -46 -349 -389 -231 -231
-358 -351 -375 -354 -36 -8 -93 22 -109 56 -29 60 -18 74 299 392 l299 300
-302 302 c-294 294 -303 304 -303 342 0 41 23 76 60 92 53 21 70 7 430 -352z"/>
</g>
</svg>
